<svg xmlns="http://www.w3.org/2000/svg" width="150" height="118" fill="none">
    <path fill="url(#a)" stroke="#000"
          d="M59.25 82.5h-3.5v-64c0-12 11-17.5 19.5-17.5s19 5.5 19 17.5v64h-4v-64c0-7-6.5-14-15-14s-16 7-16 14V49l6 3.5v-34c0-5 5-8 10-8s10 4 10 10v37l-3.5-1.5V20.5c0-3-2.5-7-6.5-7s-6.5 2-6.5 5v36l16.5 10v18h-3.5v-16l-13-7.5v23.5h-3.5V57l-6-3.5v29Z" />
    <mask id="d" width="151" height="24" x="-1" y="94.5" fill="#000" maskUnits="userSpaceOnUse">
        <path fill="#fff" d="M-1 94.5h151v24H-1z" />
        <path
                d="m1.296 116.5 2.16-12.96c.18-1.08.441-2.034.783-2.862.36-.828.837-1.53 1.431-2.106.594-.576 1.359-1.008 2.295-1.296.936-.288 2.079-.432 3.429-.432.648 0 1.296.036 1.944.108.666.054 1.35.162 2.052.324l.054.324c-.054.36-.099.81-.135 1.35-.018.54-.027 1.08-.027 1.62v15.93H12.69V99.517a7.13 7.13 0 0 1 .108-.918l.432.783a2.756 2.756 0 0 0-.864-.216 9.84 9.84 0 0 0-1.08-.054c-1.188 0-2.133.162-2.835.486a3.418 3.418 0 0 0-1.566 1.458c-.342.648-.603 1.476-.783 2.484l-2.16 12.96H1.296Zm2.7-5.94v-2.268h9.774v2.268H3.996Zm16.473 5.94V97.06h2.592v17.172h8.316v2.268H20.469Zm14.37 0V97.06h2.592v17.172h8.316v2.268H34.84ZM48.345 113.314h.216c.432.234.918.441 1.458.621.558.162 1.161.288 1.81.378.665.09 1.376.135 2.132.135.864 0 1.63-.081 2.295-.243.684-.18 1.215-.468 1.593-.864.396-.414.594-.981.594-1.701 0-.864-.252-1.485-.756-1.863-.486-.378-1.224-.657-2.214-.837l-2.376-.432a8.132 8.132 0 0 1-2.484-.864 4.907 4.907 0 0 1-1.809-1.782c-.45-.756-.675-1.71-.675-2.862 0-1.44.333-2.619 1-3.537.683-.936 1.628-1.62 2.834-2.052 1.224-.45 2.646-.675 4.266-.675.756 0 1.503.072 2.241.216.756.144 1.377.324 1.863.54v2.484h-.216c-.432-.216-.98-.414-1.647-.594-.648-.18-1.43-.27-2.349-.27-1.008 0-1.926.126-2.754.378-.81.252-1.458.657-1.944 1.215-.468.558-.702 1.287-.702 2.187 0 1.134.297 1.926.891 2.376.594.45 1.413.774 2.457.972l2.376.432c.918.162 1.72.441 2.403.837a4.23 4.23 0 0 1 1.593 1.593c.396.648.594 1.458.594 2.43 0 .882-.17 1.656-.513 2.322a4.642 4.642 0 0 1-1.458 1.674c-.612.432-1.35.756-2.214.972-.864.216-1.827.324-2.889.324-.756 0-1.476-.045-2.16-.135a18.598 18.598 0 0 1-1.89-.351 13.486 13.486 0 0 1-1.566-.486v-2.538Zm18.144-3.294v-2.268H70.7c1.08 0 1.962-.225 2.646-.675a4.177 4.177 0 0 0 1.512-1.836c.324-.774.486-1.629.486-2.565 0-1.242-.324-2.106-.972-2.592-.648-.504-1.512-.756-2.592-.756h-5.292V97.06h5.4c1.836 0 3.32.468 4.455 1.404 1.134.918 1.7 2.322 1.7 4.212 0 .882-.143 1.764-.431 2.646a6.975 6.975 0 0 1-1.296 2.376c-.594.702-1.36 1.269-2.295 1.701-.918.414-2.025.621-3.321.621h-4.212Zm-1.512 6.48V97.06h2.592v19.44h-2.592Zm15.874-9.72c0-1.98.36-3.726 1.08-5.238.738-1.512 1.782-2.691 3.132-3.537 1.368-.846 2.988-1.269 4.86-1.269 1.872 0 3.483.423 4.833 1.269 1.368.846 2.412 2.025 3.132 3.537.738 1.512 1.107 3.258 1.107 5.238 0 1.98-.37 3.726-1.107 5.238-.72 1.512-1.764 2.691-3.132 3.537-1.35.846-2.961 1.269-4.833 1.269-1.89 0-3.51-.423-4.86-1.269-1.35-.846-2.394-2.025-3.132-3.537-.72-1.512-1.08-3.258-1.08-5.238Zm2.7 0c0 1.656.26 3.06.783 4.212.522 1.134 1.26 1.998 2.214 2.592.954.576 2.079.864 3.375.864 1.296 0 2.42-.288 3.375-.864.954-.594 1.692-1.458 2.214-2.592.522-1.152.783-2.556.783-4.212 0-1.656-.261-3.051-.783-4.185-.522-1.152-1.26-2.016-2.214-2.592-.954-.594-2.08-.891-3.375-.891-1.296 0-2.421.297-3.375.891-.954.576-1.692 1.44-2.214 2.592-.522 1.134-.783 2.529-.783 4.185Zm21.065 3.888v-2.376h4.644c1.008 0 1.845-.243 2.511-.729a4.297 4.297 0 0 0 1.512-1.917 6.333 6.333 0 0 0 .513-2.538c0-1.296-.351-2.25-1.053-2.862-.684-.612-1.593-.918-2.727-.918h-5.4V97.06h5.508c1.296 0 2.421.234 3.375.702a5.09 5.09 0 0 1 2.214 2.052c.522.9.783 1.998.783 3.294 0 1.206-.207 2.286-.621 3.24a6.78 6.78 0 0 1-1.647 2.376 7.363 7.363 0 0 1-2.349 1.458 7.702 7.702 0 0 1-2.727.486h-4.536Zm-1.512 5.832V97.06h2.592v19.44h-2.592Zm11.556 0-5.076-6.588 2.7-.324 5.4 6.804v.108h-3.024Zm3.578-19.44h15.12v2.268h-6.264V116.5h-2.592V99.328h-6.264V97.06Zm17.172 16.254h.216c.432.234.918.441 1.458.621.558.162 1.161.288 1.809.378.666.09 1.377.135 2.133.135.864 0 1.629-.081 2.295-.243.684-.18 1.215-.468 1.593-.864.396-.414.594-.981.594-1.701 0-.864-.252-1.485-.756-1.863-.486-.378-1.224-.657-2.214-.837l-2.376-.432a8.132 8.132 0 0 1-2.484-.864 4.907 4.907 0 0 1-1.809-1.782c-.45-.756-.675-1.71-.675-2.862 0-1.44.333-2.619.999-3.537.684-.936 1.629-1.62 2.835-2.052 1.224-.45 2.646-.675 4.266-.675.756 0 1.503.072 2.241.216.756.144 1.377.324 1.863.54v2.484h-.216c-.432-.216-.981-.414-1.647-.594-.648-.18-1.431-.27-2.349-.27-1.008 0-1.926.126-2.754.378-.81.252-1.458.657-1.944 1.215-.468.558-.702 1.287-.702 2.187 0 1.134.297 1.926.891 2.376.594.45 1.413.774 2.457.972l2.376.432c.918.162 1.719.441 2.403.837a4.23 4.23 0 0 1 1.593 1.593c.396.648.594 1.458.594 2.43 0 .882-.171 1.656-.513 2.322a4.642 4.642 0 0 1-1.458 1.674c-.612.432-1.35.756-2.214.972-.864.216-1.827.324-2.889.324-.756 0-1.476-.045-2.16-.135a18.598 18.598 0 0 1-1.89-.351 13.486 13.486 0 0 1-1.566-.486v-2.538Z" />
    </mask>
    <path fill="url(#b)"
          d="m1.296 116.5 2.16-12.96c.18-1.08.441-2.034.783-2.862.36-.828.837-1.53 1.431-2.106.594-.576 1.359-1.008 2.295-1.296.936-.288 2.079-.432 3.429-.432.648 0 1.296.036 1.944.108.666.054 1.35.162 2.052.324l.054.324c-.054.36-.099.81-.135 1.35-.018.54-.027 1.08-.027 1.62v15.93H12.69V99.517a7.13 7.13 0 0 1 .108-.918l.432.783a2.756 2.756 0 0 0-.864-.216 9.84 9.84 0 0 0-1.08-.054c-1.188 0-2.133.162-2.835.486a3.418 3.418 0 0 0-1.566 1.458c-.342.648-.603 1.476-.783 2.484l-2.16 12.96H1.296Zm2.7-5.94v-2.268h9.774v2.268H3.996Zm16.473 5.94V97.06h2.592v17.172h8.316v2.268H20.469Zm14.37 0V97.06h2.592v17.172h8.316v2.268H34.84Z" />
    <path fill="url(#c)"
          d="M48.345 113.314h.216c.432.234.918.441 1.458.621.558.162 1.161.288 1.81.378.665.09 1.376.135 2.132.135.864 0 1.63-.081 2.295-.243.684-.18 1.215-.468 1.593-.864.396-.414.594-.981.594-1.701 0-.864-.252-1.485-.756-1.863-.486-.378-1.224-.657-2.214-.837l-2.376-.432a8.132 8.132 0 0 1-2.484-.864 4.907 4.907 0 0 1-1.809-1.782c-.45-.756-.675-1.71-.675-2.862 0-1.44.333-2.619 1-3.537.683-.936 1.628-1.62 2.834-2.052 1.224-.45 2.646-.675 4.266-.675.756 0 1.503.072 2.241.216.756.144 1.377.324 1.863.54v2.484h-.216c-.432-.216-.98-.414-1.647-.594-.648-.18-1.43-.27-2.349-.27-1.008 0-1.926.126-2.754.378-.81.252-1.458.657-1.944 1.215-.468.558-.702 1.287-.702 2.187 0 1.134.297 1.926.891 2.376.594.45 1.413.774 2.457.972l2.376.432c.918.162 1.72.441 2.403.837a4.23 4.23 0 0 1 1.593 1.593c.396.648.594 1.458.594 2.43 0 .882-.17 1.656-.513 2.322a4.642 4.642 0 0 1-1.458 1.674c-.612.432-1.35.756-2.214.972-.864.216-1.827.324-2.889.324-.756 0-1.476-.045-2.16-.135a18.598 18.598 0 0 1-1.89-.351 13.486 13.486 0 0 1-1.566-.486v-2.538Zm18.144-3.294v-2.268H70.7c1.08 0 1.962-.225 2.646-.675a4.177 4.177 0 0 0 1.512-1.836c.324-.774.486-1.629.486-2.565 0-1.242-.324-2.106-.972-2.592-.648-.504-1.512-.756-2.592-.756h-5.292V97.06h5.4c1.836 0 3.32.468 4.455 1.404 1.134.918 1.7 2.322 1.7 4.212 0 .882-.143 1.764-.431 2.646a6.975 6.975 0 0 1-1.296 2.376c-.594.702-1.36 1.269-2.295 1.701-.918.414-2.025.621-3.321.621h-4.212Zm-1.512 6.48V97.06h2.592v19.44h-2.592Zm15.874-9.72c0-1.98.36-3.726 1.08-5.238.738-1.512 1.782-2.691 3.132-3.537 1.368-.846 2.988-1.269 4.86-1.269 1.872 0 3.483.423 4.833 1.269 1.368.846 2.412 2.025 3.132 3.537.738 1.512 1.107 3.258 1.107 5.238 0 1.98-.37 3.726-1.107 5.238-.72 1.512-1.764 2.691-3.132 3.537-1.35.846-2.961 1.269-4.833 1.269-1.89 0-3.51-.423-4.86-1.269-1.35-.846-2.394-2.025-3.132-3.537-.72-1.512-1.08-3.258-1.08-5.238Zm2.7 0c0 1.656.26 3.06.783 4.212.522 1.134 1.26 1.998 2.214 2.592.954.576 2.079.864 3.375.864 1.296 0 2.42-.288 3.375-.864.954-.594 1.692-1.458 2.214-2.592.522-1.152.783-2.556.783-4.212 0-1.656-.261-3.051-.783-4.185-.522-1.152-1.26-2.016-2.214-2.592-.954-.594-2.08-.891-3.375-.891-1.296 0-2.421.297-3.375.891-.954.576-1.692 1.44-2.214 2.592-.522 1.134-.783 2.529-.783 4.185Zm21.065 3.888v-2.376h4.644c1.008 0 1.845-.243 2.511-.729a4.297 4.297 0 0 0 1.512-1.917 6.333 6.333 0 0 0 .513-2.538c0-1.296-.351-2.25-1.053-2.862-.684-.612-1.593-.918-2.727-.918h-5.4V97.06h5.508c1.296 0 2.421.234 3.375.702a5.09 5.09 0 0 1 2.214 2.052c.522.9.783 1.998.783 3.294 0 1.206-.207 2.286-.621 3.24a6.78 6.78 0 0 1-1.647 2.376 7.363 7.363 0 0 1-2.349 1.458 7.702 7.702 0 0 1-2.727.486h-4.536Zm-1.512 5.832V97.06h2.592v19.44h-2.592Zm11.556 0-5.076-6.588 2.7-.324 5.4 6.804v.108h-3.024Zm3.578-19.44h15.12v2.268h-6.264V116.5h-2.592V99.328h-6.264V97.06Zm17.172 16.254h.216c.432.234.918.441 1.458.621.558.162 1.161.288 1.809.378.666.09 1.377.135 2.133.135.864 0 1.629-.081 2.295-.243.684-.18 1.215-.468 1.593-.864.396-.414.594-.981.594-1.701 0-.864-.252-1.485-.756-1.863-.486-.378-1.224-.657-2.214-.837l-2.376-.432a8.132 8.132 0 0 1-2.484-.864 4.907 4.907 0 0 1-1.809-1.782c-.45-.756-.675-1.71-.675-2.862 0-1.44.333-2.619.999-3.537.684-.936 1.629-1.62 2.835-2.052 1.224-.45 2.646-.675 4.266-.675.756 0 1.503.072 2.241.216.756.144 1.377.324 1.863.54v2.484h-.216c-.432-.216-.981-.414-1.647-.594-.648-.18-1.431-.27-2.349-.27-1.008 0-1.926.126-2.754.378-.81.252-1.458.657-1.944 1.215-.468.558-.702 1.287-.702 2.187 0 1.134.297 1.926.891 2.376.594.45 1.413.774 2.457.972l2.376.432c.918.162 1.719.441 2.403.837a4.23 4.23 0 0 1 1.593 1.593c.396.648.594 1.458.594 2.43 0 .882-.171 1.656-.513 2.322a4.642 4.642 0 0 1-1.458 1.674c-.612.432-1.35.756-2.214.972-.864.216-1.827.324-2.889.324-.756 0-1.476-.045-2.16-.135a18.598 18.598 0 0 1-1.89-.351 13.486 13.486 0 0 1-1.566-.486v-2.538Z" />
    <path fill="#000"
          d="m1.296 116.5-1.177-.196-.232 1.39h1.409V116.5Zm2.16-12.96-1.177-.196 1.177.196Zm.783-2.862-1.095-.476-.004.01-.004.01 1.103.456Zm3.726-3.402.351 1.14-.351-1.14Zm5.373-.324-.132 1.186.018.002.018.002.096-1.19Zm2.052.324 1.177-.196-.13-.787-.779-.18-.268 1.163Zm.054.324 1.18.177.028-.187-.03-.186-1.178.196Zm-.135 1.35-1.19-.08-.002.02v.02l1.192.04Zm-.027 17.55v1.194h1.194V116.5h-1.194Zm-2.592 0h-1.194v1.194h1.194V116.5Zm0-16.983-1.192-.066-.002.033v.033h1.194Zm.108-.918 1.045-.577-1.606-2.91-.612 3.267 1.173.22Zm.432.783-.5 1.084 3.302 1.524-1.757-3.185-1.045.577Zm-.864-.216-.132 1.186.007.001.125-1.187Zm-3.915.432-.5-1.084-.01.005.51 1.079Zm-1.566 1.458-1.043-.58-.007.012-.006.011 1.056.557Zm-.783 2.484-1.175-.21-.002.014 1.177.196Zm-2.16 12.96v1.194h1.011l.166-.998-1.177-.196Zm.054-5.94H2.802v1.194h1.194v-1.194Zm0-2.268v-1.194H2.802v1.194h1.194Zm9.774 0h1.194v-1.194H13.77v1.194Zm0 2.268v1.194h1.194v-1.194H13.77Zm-11.297 6.136 2.16-12.96-2.354-.392-2.16 12.96 2.354.392Zm2.16-12.96c.169-1.01.408-1.874.71-2.602l-2.207-.912c-.383.928-.666 1.972-.857 3.122l2.354.392Zm.7-2.582a5.318 5.318 0 0 1 1.168-1.725l-1.662-1.714a7.698 7.698 0 0 0-1.695 2.487l2.19.952Zm1.168-1.725c.436-.423 1.026-.77 1.815-1.012l-.702-2.282c-1.083.334-2.023.85-2.775 1.58l1.662 1.714Zm1.815-1.012c.788-.243 1.805-.38 3.078-.38V95.65c-1.427 0-2.696.152-3.78.485l.702 2.282Zm3.078-.38c.604 0 1.208.034 1.812.101l.264-2.372a18.768 18.768 0 0 0-2.076-.116v2.387Zm1.848.105c.603.049 1.23.147 1.88.297l.536-2.326a15.442 15.442 0 0 0-2.223-.35l-.194 2.379Zm.97-.67.055.324 2.354-.392-.054-.324-2.354.392Zm.052-.05c-.06.405-.109.89-.146 1.449l2.382.158c.035-.521.077-.936.124-1.252l-2.36-.354Zm-.148 1.488a49.946 49.946 0 0 0-.027 1.66h2.386c0-.527.01-1.053.027-1.58l-2.386-.08Zm-.027 1.66V101.92h2.386V100.57h-2.387Zm0 1.35v14.58h2.386v-14.58h-2.387Zm1.193 13.386H12.69v2.388h2.592v-2.388Zm-1.399 1.194v-15.984h-2.386V116.5h2.386Zm0-15.984V99.517h-2.386V100.516h2.386Zm-.001-.933c.015-.278.046-.532.09-.764l-2.347-.44a8.324 8.324 0 0 0-.127 1.072l2.384.132Zm-2.129-.407.432.783 2.09-1.154-.432-.783-2.09 1.154Zm1.977-.878a3.936 3.936 0 0 0-1.24-.319l-.249 2.374c.253.027.406.074.489.113l1-2.168Zm-1.232-.318c-.376-.042-.78-.062-1.212-.062v2.388c.36 0 .676.016.948.046l.264-2.372Zm-1.212-.062c-1.277 0-2.415.172-3.335.596l1 2.168c.484-.224 1.236-.376 2.335-.376v-2.388Zm-3.346.601a4.613 4.613 0 0 0-2.098 1.957l2.086 1.16c.237-.426.57-.74 1.034-.959L7.94 98.519Zm-2.11 1.98c-.418.791-.71 1.746-.903 2.831l2.35.42c.166-.931.397-1.632.664-2.137l-2.112-1.114Zm-.905 2.845-2.16 12.96 2.354.392 2.16-12.96-2.354-.392Zm-.983 11.962H1.296v2.388h2.646v-2.388Zm1.248-4.746v-2.268H2.802v2.268H5.19Zm-1.194-1.074h9.774v-2.388H3.996v2.388Zm8.58-1.194v2.268h2.387v-2.268h-2.386Zm1.194 1.074H3.996v2.388h9.774v-2.388Zm6.699 7.134h-1.194v1.194h1.194V116.5Zm0-19.44v-1.194h-1.194v1.194h1.194Zm2.592 0h1.194v-1.194H23.06v1.194Zm0 17.172h-1.194v1.194h1.194v-1.194Zm8.316 0h1.194v-1.194h-1.194v1.194Zm0 2.268v1.194h1.194V116.5h-1.194Zm-9.714 0V97.06h-2.388v19.44h2.388Zm-1.194-18.246h2.592v-2.388h-2.592v2.388Zm1.398-1.194v17.172h2.387V97.06h-2.387Zm1.194 18.366h8.316v-2.388h-8.316v2.388Zm7.122-1.194v2.268h2.388v-2.268h-2.388Zm1.194 1.074H20.469v2.388h10.908v-2.388Zm3.462 1.194h-1.194v1.194h1.194V116.5Zm0-19.44v-1.194h-1.194v1.194h1.194Zm2.592 0h1.194v-1.194H37.43v1.194Zm0 17.172h-1.194v1.194h1.194v-1.194Zm8.316 0h1.194v-1.194h-1.194v1.194Zm0 2.268v1.194h1.194V116.5h-1.194Zm-9.714 0V97.06h-2.388v19.44h2.388Zm-1.194-18.246h2.592v-2.388H34.84v2.388Zm1.398-1.194v17.172h2.388V97.06h-2.388Zm1.194 18.366h8.316v-2.388h-8.316v2.388Zm7.123-1.194v2.268h2.387v-2.268h-2.388Zm1.193 1.074H34.84v2.388h10.908v-2.388Zm2.598-1.992v-1.194h-1.193v1.194h1.193Zm.216 0 .569-1.049-.266-.145h-.303v1.194Zm1.458.621-.377 1.132.022.008.022.006.333-1.146Zm1.81.378-.165 1.182.004.001.16-1.183Zm4.427-.108.282 1.16.011-.003.01-.003-.303-1.154Zm1.593-.864-.862-.825-.001.001.863.824Zm-.162-3.564-.733.942.009.007.008.006.716-.955Zm-2.214-.837-.213 1.174.213-1.174Zm-2.376-.432.214-1.174-.002-.001-.212 1.175Zm-2.484-.864-.592 1.036.01.006.009.005.573-1.047Zm-1.809-1.782-1.025.61 1.025-.61Zm.324-6.399-.964-.704-.002.003.966.701Zm2.835-2.052.403 1.124.009-.004-.412-1.12Zm6.507-.459-.228 1.172h.005l.223-1.172Zm1.863.54h1.194v-.776l-.71-.315-.484 1.091Zm0 2.484v1.194h1.194v-1.194h-1.194Zm-.216 0-.534 1.068.252.126h.282v-1.194Zm-1.647-.594-.32 1.15.009.002.311-1.152Zm-5.103.108-.347-1.142-.007.002.354 1.14Zm-1.944 1.215-.9-.784-.007.008-.007.009.914.767Zm.19 4.563-.721.951.72-.951Zm2.456.972-.222 1.173.009.001.213-1.174Zm2.376.432-.213 1.174.006.001.207-1.175Zm2.403.837-.598 1.033.598-1.033Zm1.593 1.593-1.038.589.01.017.01.016 1.018-.622Zm.081 4.752 1.062.545-1.062-.545Zm-1.458 1.674.688.975.006-.004-.694-.971Zm-2.214.972-.29-1.158.29 1.158Zm-5.049.189-.16 1.183h.005l.155-1.183Zm-1.89-.351-.29 1.158.009.002.281-1.16Zm-1.566-.486h-1.193v.82l.765.294.428-1.114Zm0-1.344h.216v-2.388h-.216v2.388Zm-.352-.145c.502.272 1.053.506 1.649.704l.755-2.264a7.987 7.987 0 0 1-1.267-.538l-1.137 2.098Zm1.693.718c.62.18 1.28.317 1.978.414l.328-2.364a11.628 11.628 0 0 1-1.64-.342l-.666 2.292Zm1.982.415c.725.098 1.49.146 2.293.146v-2.388c-.709 0-1.366-.042-1.973-.124l-.32 2.366Zm2.293.146c.936 0 1.799-.088 2.577-.277l-.564-2.32c-.553.135-1.22.209-2.013.209v2.388Zm2.599-.283c.836-.22 1.584-.598 2.152-1.194l-1.726-1.648c-.187.196-.502.394-1.034.534l.608 2.308Zm2.152-1.193c.66-.689.925-1.581.925-2.526H57.25c0 .495-.13.737-.263.876l1.725 1.65Zm.925-2.526c0-1.09-.327-2.138-1.234-2.818l-1.432 1.91c.101.076.279.27.279.908h2.387Zm-1.217-2.805c-.705-.548-1.66-.874-2.733-1.069l-.427 2.348c.907.165 1.427.397 1.694.605l1.466-1.884Zm-2.733-1.069-2.376-.432-.427 2.348 2.376.432.427-2.348Zm-2.378-.433a6.91 6.91 0 0 1-2.122-.736l-1.147 2.094a9.355 9.355 0 0 0 2.846.992l.423-2.35Zm-2.104-.725a3.715 3.715 0 0 1-1.375-1.356l-2.051 1.22a6.1 6.1 0 0 0 2.242 2.208l1.184-2.072Zm-1.375-1.356c-.311-.523-.507-1.25-.507-2.252h-2.387c0 1.302.254 2.483.843 3.472l2.05-1.22ZM49.323 103c0-1.257.289-2.171.771-2.836l-1.932-1.402c-.85 1.171-1.226 2.615-1.226 4.238h2.387Zm.769-2.833c.528-.723 1.268-1.272 2.274-1.632l-.805-2.248c-1.407.504-2.557 1.323-3.397 2.472l1.928 1.408Zm2.283-1.636c1.065-.391 2.342-.602 3.854-.602v-2.386c-1.728 0-3.294.24-4.678.748l.824 2.24Zm3.854-.602c.68 0 1.35.065 2.013.195l.457-2.343a12.874 12.874 0 0 0-2.47-.239v2.388Zm2.018.195c.702.134 1.227.292 1.601.459l.97-2.182c-.598-.265-1.315-.467-2.124-.621l-.447 2.344Zm.893-.632v2.484h2.387v-2.484H59.14Zm1.193 1.29h-.216v2.388h.216v-2.388Zm.318.127c-.526-.264-1.156-.487-1.87-.68l-.622 2.305c.619.167 1.087.341 1.424.51l1.068-2.135Zm-1.861-.677c-.782-.217-1.68-.314-2.669-.314v2.388c.847 0 1.516.083 2.03.226l.639-2.3Zm-2.669-.314c-1.107 0-2.144.139-3.101.43l.695 2.284c.698-.213 1.497-.326 2.406-.326v-2.388Zm-3.108.432c-.99.308-1.838.823-2.49 1.571l1.8 1.568c.32-.368.769-.663 1.399-.859l-.71-2.28Zm-2.504 1.588c-.688.82-.981 1.842-.981 2.954h2.387c0-.688.175-1.124.423-1.42l-1.83-1.534Zm-.981 2.954c0 1.307.342 2.553 1.364 3.327l1.44-1.902c-.165-.126-.417-.464-.417-1.425h-2.387Zm1.364 3.327c.79.599 1.802.975 2.955 1.194l.445-2.346c-.935-.177-1.56-.449-1.96-.75l-1.44 1.902Zm2.964 1.195 2.376.432.427-2.348-2.376-.432-.427 2.348Zm2.382.433c.804.142 1.469.38 2.012.695l1.196-2.066c-.824-.477-1.762-.797-2.793-.979l-.415 2.35Zm2.012.695c.507.293.883.674 1.153 1.149l2.076-1.178a5.422 5.422 0 0 0-2.033-2.037l-1.196 2.066Zm1.173 1.182c.253.415.419.995.419 1.808h2.387c0-1.131-.23-2.171-.77-3.052l-2.036 1.244Zm.419 1.808c0 .726-.14 1.307-.382 1.777l2.124 1.09c.443-.862.645-1.829.645-2.867h-2.387Zm-.382 1.777c-.252.491-.609.904-1.09 1.248l1.388 1.942a5.83 5.83 0 0 0 1.826-2.1l-2.124-1.09Zm-1.084 1.244c-.471.332-1.068.602-1.815.789l.579 2.316c.98-.245 1.86-.623 2.612-1.155l-1.376-1.95Zm-1.815.789c-.754.188-1.617.288-2.6.288v2.388c1.142 0 2.204-.116 3.179-.36l-.58-2.316Zm-2.6.288a15.48 15.48 0 0 1-2.004-.124l-.312 2.366c.74.098 1.513.146 2.316.146v-2.388Zm-2-.124a17.51 17.51 0 0 1-1.769-.328l-.562 2.32c.638.155 1.308.279 2.011.374l.32-2.366Zm-1.76-.326a12.192 12.192 0 0 1-1.427-.442l-.857 2.228c.52.2 1.09.376 1.705.53l.579-2.316Zm-.662.672v-2.538h-2.387v2.538h2.387Zm16.95-5.832h-1.194v1.194h1.194v-1.194Zm0-2.268v-1.194h-1.194v1.194h1.194Zm6.858-.675.656.997.009-.006.009-.006-.674-.985Zm1.512-1.836 1.097.47.004-.009-1.101-.461Zm-.486-5.157-.733.942.008.007.009.006.716-.955Zm-7.884-.756h-1.194v1.194h1.194v-1.194Zm0-2.268v-1.194h-1.194v1.194h1.194Zm9.855 1.404-.76.92.009.008.75-.928Zm1.269 6.858-1.135-.37-.002.007-.002.007 1.139.356Zm-1.296 2.376.91.771.006-.006.004-.005-.92-.76Zm-2.295 1.701.49 1.088.01-.004-.5-1.084Zm-9.045 7.101h-1.194v1.194h1.194V116.5Zm0-19.44v-1.194h-1.194v1.194h1.194Zm2.592 0h1.193v-1.194H67.57v1.194Zm0 19.44v1.194h1.193V116.5H67.57Zm.113-6.48v-2.268h-2.387v2.268h2.387Zm-1.193-1.074H70.7v-2.388h-4.212v2.388Zm4.212 0c1.24 0 2.37-.259 3.302-.872l-1.312-1.994c-.436.287-1.07.478-1.99.478v2.388Zm3.32-.884a5.37 5.37 0 0 0 1.935-2.351l-2.194-.94c-.234.546-.59.98-1.09 1.321l1.349 1.97Zm1.939-2.36c.392-.936.578-1.95.578-3.026h-2.387c0 .796-.137 1.492-.393 2.104l2.202.922Zm.578-3.026c0-1.412-.367-2.735-1.45-3.547l-1.431 1.91c.214.16.494.565.494 1.637h2.387Zm-1.432-3.534c-.916-.712-2.064-1.007-3.325-1.007v2.387c.898 0 1.478.208 1.859.504l1.466-1.884Zm-3.325-1.007h-5.292v2.387h5.292v-2.388Zm-4.099 1.193V97.06h-2.387v2.268h2.387Zm-1.193-1.075h5.4v-2.386h-5.4v2.386Zm5.4 0c1.63 0 2.824.412 3.695 1.132l1.52-1.842c-1.397-1.152-3.173-1.677-5.215-1.677v2.388Zm3.704 1.139c.775.627 1.258 1.639 1.258 3.284h2.387c0-2.135-.65-3.931-2.143-5.14l-1.502 1.856Zm1.258 3.284c0 .75-.122 1.507-.373 2.276l2.27.74c.324-.995.49-2.002.49-3.016h-2.387Zm-.377 2.29a5.773 5.773 0 0 1-1.078 1.972l1.841 1.52a8.176 8.176 0 0 0 1.515-2.78l-2.278-.712Zm-1.068 1.961c-.469.554-1.087 1.02-1.884 1.388l1 2.168c1.075-.496 1.986-1.164 2.706-2.014l-1.822-1.542Zm-1.875 1.384c-.726.328-1.657.515-2.83.515v2.388c1.418 0 2.702-.227 3.811-.727l-.98-2.176Zm-2.83.515h-4.212v2.388H70.7v-2.388Zm-4.53 7.674V97.06h-2.388v19.44h2.387Zm-1.194-18.246h2.592v-2.388h-2.592v2.388Zm1.398-1.194v19.44h2.387V97.06h-2.387Zm1.194 18.246h-2.592v2.388h2.592v-2.388Zm14.362-13.764-1.073-.524-.005.011 1.078.513Zm3.132-3.537-.628-1.015-.006.004.634 1.011Zm9.693 0-.634 1.011.006.004.628-1.015Zm3.132 3.537-1.078.513.005.011 1.073-.524Zm0 10.476-1.073-.524-.005.011 1.078.513Zm-3.132 3.537-.628-1.015-.006.004.634 1.011Zm-9.693 0 .634-1.011-.634 1.011Zm-3.132-3.537-1.078.513.005.011 1.073-.524Zm2.403-1.026-1.087.493.003.006 1.084-.499Zm2.214 2.592-.631 1.013.007.005.007.004.617-1.022Zm6.75 0 .617 1.022.007-.004.007-.005-.631-1.013Zm2.214-2.592 1.084.499.003-.006-1.087-.493Zm0-8.397-1.087.493.003.006 1.084-.499Zm-2.214-2.592-.631 1.013.007.005.007.004.617-1.022Zm-6.75 0 .617 1.022.007-.004.007-.005-.631-1.013Zm-2.214 2.592 1.084.499.003-.006-1.087-.493Zm-2.29 4.185c0-1.835.334-3.4.965-4.725l-2.156-1.026c-.809 1.699-1.196 3.626-1.196 5.751h2.387Zm.96-4.714c.645-1.324 1.542-2.329 2.693-3.05l-1.268-2.022c-1.55.97-2.74 2.324-3.57 4.024l2.145 1.048Zm2.687-3.046c1.15-.711 2.545-1.09 4.232-1.09v-2.388c-2.057 0-3.902.467-5.488 1.448l1.256 2.03Zm4.232-1.09c1.688 0 3.07.379 4.2 1.086l1.267-2.022c-1.571-.985-3.41-1.451-5.467-1.451v2.386Zm4.205 1.09c1.165.72 2.057 1.721 2.682 3.035l2.156-1.026c-.815-1.71-2.011-3.067-3.582-4.04l-1.256 2.031Zm2.687 3.046c.646 1.322.986 2.884.986 4.714h2.387c0-2.13-.397-4.06-1.228-5.762l-2.145 1.048Zm.986 4.714c0 1.83-.34 3.392-.986 4.714l2.145 1.048c.83-1.702 1.228-3.632 1.228-5.762h-2.387Zm-.99 4.725c-.626 1.314-1.518 2.315-2.683 3.035l1.256 2.03c1.571-.972 2.767-2.329 3.582-4.039l-2.156-1.026Zm-2.689 3.039c-1.129.707-2.511 1.086-4.2 1.086v2.388c2.057 0 3.897-.467 5.468-1.452l-1.268-2.022Zm-4.2 1.086c-1.707 0-3.098-.38-4.225-1.086l-1.268 2.022c1.573.986 3.422 1.452 5.494 1.452v-2.388Zm-4.225-1.086c-1.15-.721-2.048-1.726-2.694-3.05l-2.145 1.048c.83 1.7 2.021 3.053 3.571 4.024l1.268-2.022Zm-2.689-3.039c-.63-1.325-.964-2.89-.964-4.725h-2.387c0 2.125.387 4.052 1.196 5.751l2.156-1.026Zm-.65-4.725c0 1.776.278 3.358.889 4.705l2.174-.986c-.434-.957-.677-2.183-.677-3.719h-2.387Zm.892 4.711c.608 1.322 1.493 2.375 2.667 3.106l1.262-2.026c-.734-.457-1.325-1.132-1.76-2.078l-2.17.998Zm2.681 3.115c1.169.705 2.514 1.036 3.992 1.036v-2.388c-1.115 0-2.019-.245-2.758-.692l-1.234 2.044Zm3.992 1.036c1.477 0 2.823-.331 3.992-1.036l-1.234-2.044c-.74.447-1.644.692-2.758.692v2.388Zm4.006-1.045c1.174-.731 2.059-1.784 2.667-3.106l-2.168-.998c-.436.946-1.027 1.621-1.761 2.078l1.262 2.026Zm2.67-3.112c.61-1.347.89-2.929.89-4.705H95.1c0 1.536-.242 2.762-.676 3.719l2.174.986Zm.89-4.705c0-1.775-.28-3.351-.893-4.684l-2.168.998c.43.935.673 2.149.673 3.686h2.387Zm-.89-4.678c-.608-1.341-1.496-2.404-2.684-3.12l-1.234 2.043c.72.435 1.307 1.1 1.744 2.063l2.174-.986Zm-2.67-3.112c-1.171-.73-2.522-1.072-4.006-1.072v2.388c1.108 0 2.007.251 2.744.71l1.262-2.026Zm-4.006-1.072c-1.484 0-2.835.343-4.006 1.072l1.262 2.026c.737-.459 1.636-.71 2.744-.71v-2.388Zm-3.992 1.063c-1.188.717-2.077 1.78-2.684 3.121l2.174.986c.436-.963 1.023-1.628 1.744-2.063l-1.234-2.044Zm-2.681 3.115c-.614 1.333-.893 2.909-.893 4.684h2.387c0-1.537.244-2.751.674-3.686l-2.168-.998Zm21.366 8.572h-1.194v1.194h1.194v-1.194Zm0-2.376v-1.194h-1.194v1.194h1.194Zm7.155-.729-.692-.973-.006.004-.006.005.704.964Zm1.512-1.917-1.096-.473-.005.01-.004.011 1.105.452Zm-.54-5.4-.796.889.006.006.005.005.785-.9Zm-8.127-.918h-1.194v1.194h1.194v-1.194Zm0-2.268v-1.194h-1.194v1.194h1.194Zm8.883.702-.526 1.072.526-1.072Zm2.214 2.052-1.033.599 1.033-.599Zm.162 6.534-1.095-.475-.005.01 1.1.465Zm-1.647 2.376.808.878.001-.001-.809-.877Zm-2.349 1.458.419 1.118.012-.005-.431-1.113Zm-8.775 6.318h-1.194v1.194h1.194V116.5Zm0-19.44v-1.194h-1.194v1.194h1.194Zm2.592 0h1.193v-1.194h-1.193v1.194Zm0 19.44v1.194h1.193V116.5h-1.193Zm8.964 0-.946.728.359.466h.587V116.5Zm-5.076-6.588-.142-1.185-2.085.25 1.281 1.663.946-.728Zm2.7-.324.935-.742-.415-.523-.662.08.142 1.185Zm5.4 6.804h1.193v-.416l-.258-.326-.935.742Zm0 .108v1.194h1.193V116.5h-1.193Zm-11.875-5.832v-2.376h-2.387v2.376h2.387Zm-1.193-1.182h4.644v-2.388h-4.644v2.388Zm4.644 0c1.203 0 2.302-.293 3.214-.959l-1.407-1.928c-.42.306-.995.499-1.807.499v2.388Zm3.202-.95a5.486 5.486 0 0 0 1.925-2.438l-2.209-.904a3.101 3.101 0 0 1-1.099 1.396l1.383 1.946Zm1.916-2.417c.41-.948.611-1.955.611-3.011h-2.387c0 .744-.14 1.429-.415 2.065l2.191.946Zm.611-3.011c0-1.5-.41-2.845-1.462-3.762l-1.569 1.8c.353.307.644.87.644 1.962h2.387Zm-1.45-3.752c-.952-.85-2.168-1.221-3.523-1.221v2.387c.912 0 1.514.241 1.931.613l1.592-1.779Zm-3.523-1.221h-5.4v2.387h5.4v-2.388Zm-4.207 1.193V97.06h-2.387v2.268h2.387Zm-1.193-1.075h5.508v-2.386h-5.508v2.386Zm5.508 0c1.153 0 2.091.209 2.849.58l1.051-2.143c-1.149-.564-2.461-.823-3.9-.823v2.386Zm2.849.58a3.895 3.895 0 0 1 1.707 1.58l2.065-1.198a6.279 6.279 0 0 0-2.721-2.525l-1.051 2.144Zm1.707 1.58c.394.678.622 1.558.622 2.695h2.387c0-1.455-.293-2.771-.944-3.893l-2.065 1.198Zm.622 2.695c0 1.068-.183 1.983-.522 2.765l2.19.95c.488-1.126.719-2.371.719-3.715h-2.387Zm-.527 2.775a5.58 5.58 0 0 1-1.357 1.964l1.619 1.754a7.969 7.969 0 0 0 1.937-2.788l-2.199-.93Zm-1.356 1.963a6.171 6.171 0 0 1-1.972 1.223l.863 2.226a8.545 8.545 0 0 0 2.726-1.693l-1.617-1.756Zm-1.959 1.218a6.512 6.512 0 0 1-2.308.41v2.388a8.897 8.897 0 0 0 3.146-.562l-.838-2.236Zm-2.308.41h-4.536v2.388h4.536v-2.388Zm-4.855 7.026V97.06h-2.387v19.44h2.387Zm-1.193-18.246h2.592v-2.388h-2.592v2.388Zm1.398-1.194v19.44h2.387V97.06h-2.387Zm1.194 18.246h-2.592v2.388h2.592v-2.388Zm9.909.466-5.076-6.588-1.891 1.456 5.076 6.588 1.891-1.456Zm-5.879-4.675 2.7-.324-.284-2.37-2.7.324.284 2.37Zm1.623-.767 5.4 6.804 1.87-1.484-5.4-6.804-1.87 1.484Zm5.141 6.062v.108h2.387v-.108h-2.387Zm1.194-1.086h-3.024v2.388h3.024v-2.388Zm.554-18.246v-1.194h-1.193v1.194h1.193Zm15.12 0h1.194v-1.194h-1.194v1.194Zm0 2.268v1.194h1.194v-1.194h-1.194Zm-6.264 0v-1.194h-1.193v1.194h1.193Zm0 17.172v1.194h1.194V116.5h-1.194Zm-2.592 0h-1.193v1.194h1.193V116.5Zm0-17.172h1.194v-1.194h-1.194v1.194Zm-6.264 0h-1.193v1.194h1.193v-1.194Zm0-1.075h15.12v-2.386h-15.12v2.386Zm13.927-1.193v2.268h2.387V97.06h-2.387Zm1.193 1.075h-6.264v2.387h6.264v-2.388Zm-7.457 1.193V116.5h2.387V99.328h-2.387Zm1.193 15.978h-2.592v2.388h2.592v-2.388Zm-1.398 1.194V99.328h-2.387V116.5h2.387Zm-1.194-18.365h-6.264v2.387h6.264v-2.388Zm-5.07 1.193V97.06h-2.387v2.268h2.387Zm15.978 13.986v-1.194h-1.194v1.194h1.194Zm.216 0 .568-1.049-.266-.145h-.302v1.194Zm1.458.621-.378 1.132.022.008.023.006.333-1.146Zm1.809.378-.165 1.182.005.001.16-1.183Zm4.428-.108.282 1.16.011-.003.01-.003-.303-1.154Zm1.593-.864-.863-.825-.001.001.864.824Zm-.162-3.564-.733.942.008.007.009.006.716-.955Zm-2.214-.837-.214 1.174.214-1.174Zm-2.376-.432.213-1.174-.002-.001-.211 1.175Zm-2.484-.864-.593 1.036.01.006.009.005.574-1.047Zm-1.809-1.782-1.026.61 1.026-.61Zm.324-6.399-.964-.704-.002.003.966.701Zm2.835-2.052.402 1.124.009-.004-.411-1.12Zm6.507-.459-.229 1.172h.005l.224-1.172Zm1.863.54h1.193v-.776l-.709-.315-.484 1.091Zm0 2.484v1.194h1.193v-1.194h-1.193Zm-.216 0-.534 1.068.252.126h.282v-1.194Zm-1.647-.594-.32 1.15.008.002.312-1.152Zm-5.103.108-.348-1.142-.007.002.355 1.14Zm-1.944 1.215-.9-.784-.008.008-.007.009.915.767Zm.189 4.563-.721.951.721-.951Zm2.457.972-.223 1.173.009.001.214-1.174Zm2.376.432-.214 1.174.006.001.208-1.175Zm2.403.837-.598 1.033.598-1.033Zm1.593 1.593-1.038.589.009.017.01.016 1.019-.622Zm.081 4.752 1.061.545-1.061-.545Zm-1.458 1.674.688.975.005-.004-.693-.971Zm-2.214.972-.29-1.158.29 1.158Zm-5.049.189-.16 1.183h.004l.156-1.183Zm-1.89-.351-.29 1.158.008.002.282-1.16Zm-1.566-.486h-1.194v.82l.765.294.429-1.114Zm0-1.344h.216v-2.388h-.216v2.388Zm-.353-.145c.502.272 1.053.506 1.649.704l.755-2.264a7.988 7.988 0 0 1-1.267-.538l-1.137 2.098Zm1.694.718c.619.18 1.279.317 1.977.414l.329-2.364a11.658 11.658 0 0 1-1.641-.342l-.665 2.292Zm1.982.415c.725.098 1.49.146 2.293.146v-2.388c-.709 0-1.367-.042-1.974-.124l-.319 2.366Zm2.293.146c.935 0 1.798-.088 2.577-.277l-.564-2.32c-.554.135-1.221.209-2.013.209v2.388Zm2.598-.283c.837-.22 1.584-.598 2.153-1.194l-1.727-1.648c-.187.196-.501.394-1.033.534l.607 2.308Zm2.152-1.193c.66-.689.925-1.581.925-2.526h-2.387c0 .495-.13.737-.263.876l1.725 1.65Zm.925-2.526c0-1.09-.326-2.138-1.233-2.818l-1.432 1.91c.101.076.278.27.278.908h2.387Zm-1.217-2.805c-.705-.548-1.66-.874-2.733-1.069l-.427 2.348c.907.165 1.428.397 1.695.605l1.465-1.884Zm-2.733-1.069-2.376-.432-.427 2.348 2.376.432.427-2.348Zm-2.378-.433a6.906 6.906 0 0 1-2.122-.736l-1.147 2.094a9.359 9.359 0 0 0 2.846.992l.423-2.35Zm-2.103-.725a3.72 3.72 0 0 1-1.376-1.356l-2.051 1.22a6.102 6.102 0 0 0 2.242 2.208l1.185-2.072Zm-1.376-1.356c-.311-.523-.507-1.25-.507-2.252H134c0 1.302.254 2.483.843 3.472l2.051-1.22Zm-.507-2.252c0-1.257.289-2.171.772-2.836l-1.932-1.402c-.85 1.171-1.227 2.615-1.227 4.238h2.387Zm.769-2.833c.529-.723 1.268-1.272 2.274-1.632l-.805-2.248c-1.406.504-2.556 1.323-3.396 2.472l1.927 1.408Zm2.283-1.636c1.065-.391 2.342-.602 3.855-.602v-2.386c-1.728 0-3.295.24-4.678.748l.823 2.24Zm3.855-.602c.679 0 1.35.065 2.012.195l.457-2.343a12.865 12.865 0 0 0-2.469-.239v2.388Zm2.017.195c.703.134 1.228.292 1.602.459l.969-2.182c-.597-.265-1.314-.467-2.124-.621l-.447 2.344Zm.893-.632v2.484h2.387v-2.484h-2.387Zm1.194 1.29h-.216v2.388h.216v-2.388Zm.317.127c-.526-.264-1.156-.487-1.869-.68l-.623 2.305c.619.167 1.087.341 1.425.51l1.067-2.135Zm-1.861-.677c-.782-.217-1.679-.314-2.668-.314v2.388c.846 0 1.515.083 2.029.226l.639-2.3Zm-2.668-.314c-1.107 0-2.144.139-3.102.43l.695 2.284c.699-.213 1.497-.326 2.407-.326v-2.388Zm-3.109.432c-.99.308-1.838.823-2.489 1.571l1.8 1.568c.32-.368.768-.663 1.398-.859l-.709-2.28Zm-2.504 1.588c-.688.82-.981 1.842-.981 2.954h2.387c0-.688.175-1.124.423-1.42l-1.829-1.534Zm-.981 2.954c0 1.307.342 2.553 1.364 3.327l1.441-1.902c-.166-.126-.418-.464-.418-1.425h-2.387Zm1.364 3.327c.79.599 1.802.975 2.955 1.194l.445-2.346c-.935-.177-1.56-.449-1.959-.75l-1.441 1.902Zm2.964 1.195 2.376.432.427-2.348-2.376-.432-.427 2.348Zm2.382.433c.805.142 1.469.38 2.013.695l1.196-2.066c-.825-.477-1.763-.797-2.794-.979l-.415 2.35Zm2.013.695c.506.293.883.674 1.153 1.149l2.076-1.178a5.424 5.424 0 0 0-2.033-2.037l-1.196 2.066Zm1.172 1.182c.254.415.419.995.419 1.808h2.387c0-1.131-.23-2.171-.769-3.052l-2.037 1.244Zm.419 1.808c0 .726-.14 1.307-.381 1.777l2.123 1.09c.443-.862.645-1.829.645-2.867h-2.387Zm-.381 1.777c-.252.491-.61.904-1.09 1.248l1.387 1.942a5.826 5.826 0 0 0 1.826-2.1l-2.123-1.09Zm-1.085 1.244c-.471.332-1.068.602-1.815.789l.579 2.316c.981-.245 1.86-.623 2.613-1.155l-1.377-1.95Zm-1.815.789c-.753.188-1.617.288-2.599.288v2.388c1.141 0 2.203-.116 3.178-.36l-.579-2.316Zm-2.599.288c-.709 0-1.377-.042-2.005-.124l-.311 2.366c.74.098 1.512.146 2.316.146v-2.388Zm-2.001-.124a17.493 17.493 0 0 1-1.768-.328l-.563 2.32c.638.155 1.309.279 2.012.374l.319-2.366Zm-1.76-.326a12.184 12.184 0 0 1-1.427-.442l-.857 2.228c.521.2 1.09.376 1.705.53l.579-2.316Zm-.662.672v-2.538h-2.387v2.538h2.387Z"
          mask="url(#d)" />
    <defs>
        <linearGradient id="a" x1="100.75" x2="-20.25" y1="6.5" y2="82.5" gradientUnits="userSpaceOnUse">
            <stop stop-color="#0F0" />
            <stop offset="1" stop-color="#162816" />
        </linearGradient>
        <linearGradient id="b" x1="38.06" x2="-47.444" y1="95.781" y2="174.315" gradientUnits="userSpaceOnUse">
            <stop stop-color="#0F0" />
            <stop offset="1" />
        </linearGradient>
        <linearGradient id="c" x1="92.481" x2="126.385" y1="98.145" y2="238.129" gradientUnits="userSpaceOnUse">
            <stop stop-color="#fff" />
            <stop offset="1" />
        </linearGradient>
    </defs>
</svg>